<svg width="24" height="24" viewBox="0 0 24 24" fill="none" xmlns="http://www.w3.org/2000/svg">
<path fill-rule="evenodd" clip-rule="evenodd" d="M13.277 5.21909C13.4172 5.07783 13.6043 5 13.8038 5C14.0033 5 14.1904 5.07783 14.3305 5.21909L14.7768 5.66843C15.0672 5.96122 15.0672 6.43709 14.7768 6.72944L9.68822 11.8543L14.7825 16.9848C14.9226 17.1261 15 17.3144 15 17.5152C15 17.7163 14.9226 17.9046 14.7825 18.046L14.3362 18.4952C14.1959 18.6365 14.0089 18.7143 13.8094 18.7143C13.6099 18.7143 13.4229 18.6365 13.2827 18.4952L7.21721 12.3867C7.07672 12.245 6.99956 12.0558 7 11.8546C6.99956 11.6527 7.07672 11.4636 7.21721 11.322L13.277 5.21909Z" fill="#818181"/>
</svg>
