<svg width="24" height="24" viewBox="0 0 24 24" fill="#FFF" xmlns="http://www.w3.org/2000/svg">
<path fill-rule="evenodd" clip-rule="evenodd" d="M17.8518 16.9879H5.14845C4.72795 16.9879 4.38599 16.6484 4.38599 16.2309V8.27246L11.0767 13.4042C11.2013 13.4996 11.3507 13.5475 11.5003 13.5475C11.6497 13.5475 11.799 13.4996 11.924 13.4042L18.6142 8.27246V16.2307C18.6142 16.6484 18.2723 16.9879 17.8518 16.9879ZM17.5161 7.37598L11.5002 11.9899L5.48394 7.37598H17.5161ZM17.8517 6H5.14833C3.96364 6 3 6.95676 3 8.13288V16.2304C3 17.4064 3.96364 18.3636 5.14833 18.3636H17.8517C19.0364 18.3636 20 17.4064 20 16.2304V8.13288C20 6.95676 19.0364 6 17.8517 6Z"/>
</svg>
