<svg width="24" height="24" viewBox="0 0 24 24" fill="#FFF" xmlns="http://www.w3.org/2000/svg">
<path fill-rule="evenodd" clip-rule="evenodd" d="M20.6136 15.1284C20.2675 15.3047 19.8444 15.1652 19.6691 14.8148C18.366 12.2103 15.461 10.3215 12 10.3215C8.54166 10.3215 5.63515 12.2081 4.33093 14.8148C4.15596 15.1646 3.73292 15.305 3.38639 15.1284C3.03975 14.9517 2.9006 14.525 3.0756 14.1752C3.85108 12.6252 5.08 11.3122 6.63032 10.3763L4.72707 8.45565C4.4525 8.17854 4.4525 7.72929 4.72703 7.45222C5.0016 7.17511 5.44682 7.17511 5.72143 7.45222L7.95423 9.70545C9.0066 9.26593 10.1362 9.00156 11.2969 8.92546V5.70953C11.2969 5.31766 11.6116 5 12 5C12.3883 5 12.7031 5.31766 12.7031 5.70953V8.9255C13.8638 9.0016 14.9934 9.26597 16.0457 9.70549L18.2785 7.45226C18.5532 7.17518 18.9983 7.17518 19.2729 7.45226C19.5475 7.72937 19.5475 8.17861 19.2729 8.45568L17.3697 10.3763C18.92 11.3122 20.1489 12.6252 20.9244 14.1752C21.0994 14.525 20.9603 14.9518 20.6136 15.1284ZM12 17.6297C11.0308 17.6297 10.2422 16.834 10.2422 15.8559C10.2422 14.8778 11.0308 14.082 12 14.082C12.9693 14.082 13.7578 14.8778 13.7578 15.8559C13.7578 16.834 12.9693 17.6297 12 17.6297ZM12 12.663C10.2554 12.663 8.83602 14.0953 8.83602 15.8559C8.83602 17.6164 10.2554 19.0488 12 19.0488C13.7446 19.0488 15.164 17.6164 15.164 15.8559C15.164 14.0953 13.7446 12.663 12 12.663Z"/>
</svg>
