<svg width="24" height="24" viewBox="0 0 24 24" fill="#FFF" xmlns="http://www.w3.org/2000/svg">
<path fill-rule="evenodd" clip-rule="evenodd" d="M17.594 18.7758C17.594 18.8985 17.4875 19.0017 17.3619 19.0017H7.625C7.49895 19.0017 7.39286 18.8985 7.39286 18.7758V10.2016C7.39286 10.0789 7.49895 9.97566 7.625 9.97566H17.3619C17.4875 9.97566 17.594 10.0789 17.594 10.2016V18.7758ZM9.3252 6.43919C9.3252 4.73875 10.7467 3.35547 12.4931 3.35547C14.2401 3.35547 15.6616 4.73875 15.6616 6.43919V8.61947H9.3252V6.43919ZM17.3619 8.61983H17.0545V6.43955C17.0545 3.99137 15.0083 2 12.4932 2C9.97858 2 7.93236 3.99137 7.93236 6.43955V8.61983H7.625C6.72904 8.61983 6 9.32961 6 10.2016V18.7758C6 19.6479 6.72904 20.3576 7.625 20.3576H17.3619C18.2578 20.3576 18.9869 19.6479 18.9869 18.7758V10.2016C18.9869 9.32961 18.2578 8.61983 17.3619 8.61983Z"/>
<path fill-rule="evenodd" clip-rule="evenodd" d="M12.4931 12.5127C12.1086 12.5127 11.7966 12.8164 11.7966 13.1906V15.7862C11.7966 16.1604 12.1086 16.4641 12.4931 16.4641C12.8776 16.4641 13.1895 16.1604 13.1895 15.7862V13.1906C13.1895 12.8164 12.8776 12.5127 12.4931 12.5127Z"/>
</svg>
