<svg width="84" height="94" viewBox="0 0 84 94" fill="none" xmlns="http://www.w3.org/2000/svg">
<g filter="url(#filter0_d_63_418)">
<path d="M47.3332 48.121C53.8133 48.121 59.0665 42.8678 59.0665 36.3876C59.0665 29.9075 53.8133 24.6543 47.3332 24.6543C40.853 24.6543 35.5999 29.9075 35.5999 36.3876C35.5999 42.8678 40.853 48.121 47.3332 48.121Z" fill="#EB0057"/>
<path fill-rule="evenodd" clip-rule="evenodd" d="M46.7999 68.4133V64.0293C46.7999 63.0373 47.1924 62.088 47.8943 61.3882L52.1396 57.1429C52.0351 54.8304 52.6836 52.488 54.0767 50.5168C51.9583 50.1562 49.6906 49.96 47.3332 49.96C40.2463 49.96 33.9722 51.7328 30.0767 54.3888C27.105 56.4154 25.4666 58.9904 25.4666 61.6933V64.7866C25.4666 65.7488 25.8484 66.6725 26.529 67.3509C27.2095 68.0314 28.1311 68.4133 29.0932 68.4133H46.7999Z" fill="#EB0057"/>
</g>
<path opacity="0.3" d="M61.5985 64.6163L61.3491 64.5789L61.1707 64.7572L56.2171 69.7108C56.0101 69.9178 55.7299 70.0337 55.4379 70.0337H50.5333C49.9263 70.0337 49.4333 69.5408 49.4333 68.9337V64.0292C49.4333 63.7372 49.5492 63.457 49.7562 63.25C49.7562 63.25 49.7562 63.2499 49.7562 63.2499L54.7098 58.2985L54.8882 58.1202L54.8507 57.8707C54.485 55.433 55.2407 52.8609 57.1141 50.9875C60.2512 47.8505 65.3446 47.8506 68.4794 50.9874L68.4796 50.9876C71.6164 54.1224 71.6166 59.2159 68.4795 62.3529C66.6061 64.2264 64.034 64.982 61.5985 64.6163ZM60.8081 54.6815C59.7104 55.7791 59.7104 57.5613 60.8081 58.659C61.9057 59.7566 63.6879 59.7566 64.7856 58.659C65.8832 57.5613 65.8832 55.7791 64.7856 54.6815C63.6879 53.5838 61.9057 53.5838 60.8081 54.6815Z" fill="#EB0057" stroke="#54172D"/>
<defs>
<filter id="filter0_d_63_418" x="0.866552" y="0.0542965" width="82.7999" height="92.9588" filterUnits="userSpaceOnUse" color-interpolation-filters="sRGB">
<feFlood flood-opacity="0" result="BackgroundImageFix"/>
<feColorMatrix in="SourceAlpha" type="matrix" values="0 0 0 0 0 0 0 0 0 0 0 0 0 0 0 0 0 0 127 0" result="hardAlpha"/>
<feOffset/>
<feGaussianBlur stdDeviation="12.3"/>
<feComposite in2="hardAlpha" operator="out"/>
<feColorMatrix type="matrix" values="0 0 0 0 0.921569 0 0 0 0 0.00784314 0 0 0 0 0.34902 0 0 0 0.47 0"/>
<feBlend mode="normal" in2="BackgroundImageFix" result="effect1_dropShadow_63_418"/>
<feBlend mode="normal" in="SourceGraphic" in2="effect1_dropShadow_63_418" result="shape"/>
</filter>
</defs>
</svg>
