<svg width="104" height="112" viewBox="0 0 104 112" fill="none" xmlns="http://www.w3.org/2000/svg">
<path d="M104 38.5401V26.6816C104 11.9386 92.0825 0 77.5432 0H0L29.2376 25.4797H44.3331L26.5363 9.93548H77.5432C86.6799 9.93548 94.0688 17.3871 94.0688 26.6015V38.4599C94.0688 47.3538 87.1566 54.6452 78.4171 55.1259L66.2613 44.6296L51.2452 44.7097L63.3216 55.2862H8.34225V77H18.194V65.2216H74.8419L88.3484 77H103.444L87.6333 63.2185C97.1673 59.2123 104 49.6774 104 38.5401Z" fill="#EB0057"/>
<path d="M8 100.789C8 100.688 8.10113 100.562 8.22756 100.562H11.5398C12.9304 100.562 14.0429 101.675 14.0429 103.066C14.0429 104.128 13.3349 104.989 12.3236 105.419L13.8912 108.379C13.967 108.53 13.8912 108.707 13.7142 108.707H12.5006C12.3994 108.707 12.3236 108.657 12.3236 108.606L10.7813 105.545H9.51705V108.48C9.51705 108.581 9.41591 108.707 9.28949 108.707H8.22756C8.10113 108.707 8 108.606 8 108.48V100.789ZM11.4134 104.255C12.0202 104.255 12.5511 103.724 12.5511 103.066C12.5511 102.459 12.0202 101.928 11.4134 101.928H9.51705V104.23H11.4134V104.255Z" fill="white"/>
<path d="M18.8733 100.789C18.8733 100.688 18.9744 100.562 19.1009 100.562H23.8037C23.9301 100.562 24.0313 100.663 24.0313 100.789V101.751C24.0313 101.852 23.9301 101.978 23.8037 101.978H20.3651V103.876H23.2222C23.3233 103.876 23.4497 103.977 23.4497 104.103V105.065C23.4497 105.191 23.3486 105.292 23.2222 105.292H20.3651V107.316H23.8037C23.9301 107.316 24.0313 107.417 24.0313 107.544V108.454C24.0313 108.556 23.9301 108.682 23.8037 108.682H19.0756C18.9492 108.682 18.848 108.581 18.848 108.454L18.8733 100.789Z" fill="white"/>
<path d="M32.958 100.562C35.2589 100.562 37.1299 102.408 37.1299 104.761C37.1299 106.329 36.2196 107.721 34.8796 108.454L36.3208 110.731C36.4219 110.908 36.3208 111.06 36.1438 111.06H34.9302C34.9049 111.06 34.7785 111.035 34.7532 110.959L33.5142 108.859C33.3373 108.884 33.135 108.884 32.9833 108.884C30.6824 108.884 28.8367 107.038 28.8367 104.736C28.8114 102.408 30.6319 100.562 32.958 100.562ZM32.958 107.392C34.4245 107.392 35.6128 106.178 35.6128 104.736C35.6128 103.294 34.3992 102.079 32.958 102.079C31.4915 102.079 30.3032 103.294 30.3032 104.736C30.3032 106.178 31.5168 107.392 32.958 107.392Z" fill="white"/>
<path d="M41.9351 100.789C41.9351 100.688 42.0362 100.562 42.1626 100.562H43.2751C43.4015 100.562 43.5027 100.663 43.5027 100.789V105.52C43.5027 106.506 44.1853 107.291 45.1714 107.291C46.1828 107.291 46.8655 106.532 46.8655 105.545V100.789C46.8655 100.688 46.9666 100.562 47.093 100.562H48.2055C48.3067 100.562 48.4331 100.663 48.4331 100.789V105.621C48.4331 107.392 47.0172 108.809 45.1967 108.809C43.3763 108.809 41.9856 107.392 41.9856 105.621V100.789H41.9351Z" fill="white"/>
<path d="M53.2383 100.789C53.2383 100.688 53.3394 100.562 53.4658 100.562H58.1687C58.2951 100.562 58.3962 100.663 58.3962 100.789V101.751C58.3962 101.852 58.2951 101.978 58.1687 101.978H54.73V103.876H57.5871C57.6883 103.876 57.8147 103.977 57.8147 104.103V105.065C57.8147 105.191 57.7136 105.292 57.5871 105.292H54.73V107.316H58.1687C58.2951 107.316 58.3962 107.417 58.3962 107.544V108.454C58.3962 108.556 58.2951 108.682 58.1687 108.682H53.4658C53.3394 108.682 53.2383 108.581 53.2383 108.454V100.789Z" fill="white"/>
<path d="M63.2551 107.645L63.6596 106.937C63.7608 106.759 63.9378 106.759 64.0642 106.861C64.1148 106.886 65.0503 107.569 65.8088 107.569C66.4156 107.569 66.8707 107.164 66.8707 106.684C66.8707 106.102 66.365 105.697 65.4042 105.292C64.317 104.862 63.2298 104.154 63.2298 102.788C63.2298 101.751 63.9883 100.562 65.8341 100.562C67.0224 100.562 67.9074 101.169 68.1349 101.32C68.2361 101.396 68.2866 101.573 68.2108 101.7L67.781 102.358C67.6798 102.484 67.5281 102.585 67.3764 102.484C67.2753 102.434 66.3903 101.852 65.7582 101.852C65.1008 101.852 64.7469 102.282 64.7469 102.661C64.7469 103.218 65.1767 103.572 66.1122 103.951C67.25 104.407 68.5395 105.09 68.5395 106.557C68.5395 107.771 67.5028 108.859 65.8847 108.859C64.4182 108.859 63.5838 108.176 63.331 107.948C63.2045 107.898 63.154 107.847 63.2551 107.645Z" fill="white"/>
<path d="M75.342 101.978H73.5722C73.4457 101.978 73.3446 101.877 73.3446 101.751V100.789C73.3446 100.688 73.4457 100.562 73.5722 100.562H78.629C78.7554 100.562 78.8565 100.663 78.8565 100.789V101.751C78.8565 101.852 78.7554 101.978 78.629 101.978H76.8591V108.48C76.8591 108.581 76.758 108.707 76.6315 108.707H75.5696C75.4685 108.707 75.342 108.606 75.342 108.48V101.978Z" fill="white"/>
<path d="M83.6617 100.789C83.6617 100.688 83.7629 100.562 83.8893 100.562H85.0018C85.1282 100.562 85.2294 100.663 85.2294 100.789V105.52C85.2294 106.506 85.912 107.291 86.8981 107.291C87.9095 107.291 88.5921 106.532 88.5921 105.545V100.789C88.5921 100.688 88.6933 100.562 88.8197 100.562H89.9322C90.0333 100.562 90.1598 100.663 90.1598 100.789V105.621C90.1598 107.392 88.7439 108.809 86.9234 108.809C85.1029 108.809 83.7123 107.392 83.7123 105.621V100.789H83.6617Z" fill="white"/>
<path d="M96.41 100.739C96.4353 100.637 96.4859 100.562 96.6123 100.562H96.7893C96.8904 100.562 96.9663 100.587 96.9663 100.663L99.52 106.127H99.5453L102.074 100.663C102.099 100.587 102.175 100.562 102.251 100.562H102.428C102.554 100.562 102.605 100.637 102.63 100.739L103.995 108.505C104.021 108.682 103.945 108.758 103.793 108.758H102.731C102.63 108.758 102.554 108.657 102.503 108.581L101.821 104.179H101.796L99.7728 108.733C99.7475 108.809 99.6717 108.859 99.5958 108.859H99.3935C99.2924 108.859 99.2166 108.809 99.2166 108.733L97.1433 104.204H97.118L96.4353 108.606C96.41 108.682 96.3342 108.783 96.233 108.783H95.1964C95.0447 108.783 94.9436 108.682 94.9688 108.53L96.41 100.739Z" fill="white"/>
</svg>
